<mxfile host="app.diagrams.net" modified="2022-12-08T22:01:03.731Z" agent="5.0 (X11; Ubuntu)" etag="W8lDr_heTGBPIv3OHwoP" version="20.6.0" type="github">
  <diagram id="zjbsmMx9dNUYekVJXI4S" name="Page-1">
    <mxGraphModel dx="68" dy="993" grid="1" gridSize="10" guides="1" tooltips="1" connect="1" arrows="1" fold="1" page="0" pageScale="1" pageWidth="850" pageHeight="1100" math="0" shadow="0">
      <root>
        <mxCell id="0" />
        <mxCell id="1" parent="0" />
        <mxCell id="_Qzaa5entBogjLJZciO9-70" value="&lt;font style=&quot;font-size: 33px;&quot;&gt;Wireframe of the success stories page&lt;/font&gt;" style="text;html=1;strokeColor=none;fillColor=none;align=center;verticalAlign=middle;whiteSpace=wrap;rounded=0;fontSize=16;" parent="1" vertex="1">
          <mxGeometry x="1140" y="-40" width="320" height="100" as="geometry" />
        </mxCell>
        <mxCell id="oHM1tqddM9_ak2Br6Nf2-67" value="" style="rounded=0;whiteSpace=wrap;html=1;" parent="1" vertex="1">
          <mxGeometry x="960" y="120" width="680" height="210" as="geometry" />
        </mxCell>
        <mxCell id="oHM1tqddM9_ak2Br6Nf2-68" value="&lt;font style=&quot;font-size: 16px;&quot;&gt;Logo&lt;/font&gt;" style="ellipse;whiteSpace=wrap;html=1;aspect=fixed;" parent="1" vertex="1">
          <mxGeometry x="1010" y="160" width="140" height="140" as="geometry" />
        </mxCell>
        <mxCell id="oHM1tqddM9_ak2Br6Nf2-69" value="Moto" style="rounded=0;whiteSpace=wrap;html=1;fontSize=16;" parent="1" vertex="1">
          <mxGeometry x="1200" y="195" width="370" height="60" as="geometry" />
        </mxCell>
        <mxCell id="oHM1tqddM9_ak2Br6Nf2-70" value="" style="rounded=0;whiteSpace=wrap;html=1;fontSize=16;" parent="1" vertex="1">
          <mxGeometry x="960" y="330" width="680" height="50" as="geometry" />
        </mxCell>
        <mxCell id="oHM1tqddM9_ak2Br6Nf2-71" value="Academics" style="rounded=0;whiteSpace=wrap;html=1;fontSize=16;" parent="1" vertex="1">
          <mxGeometry x="1110" y="330" width="120" height="50" as="geometry" />
        </mxCell>
        <mxCell id="oHM1tqddM9_ak2Br6Nf2-72" value="Calendar" style="rounded=0;whiteSpace=wrap;html=1;fontSize=16;" parent="1" vertex="1">
          <mxGeometry x="1240" y="330" width="120" height="50" as="geometry" />
        </mxCell>
        <mxCell id="oHM1tqddM9_ak2Br6Nf2-73" value="About" style="rounded=0;whiteSpace=wrap;html=1;fontSize=16;" parent="1" vertex="1">
          <mxGeometry x="1370" y="330" width="120" height="50" as="geometry" />
        </mxCell>
        <mxCell id="oHM1tqddM9_ak2Br6Nf2-74" value="Contact us" style="rounded=0;whiteSpace=wrap;html=1;fontSize=16;" parent="1" vertex="1">
          <mxGeometry x="1500" y="330" width="120" height="50" as="geometry" />
        </mxCell>
        <mxCell id="oHM1tqddM9_ak2Br6Nf2-75" value="space" style="rounded=0;whiteSpace=wrap;html=1;fontSize=16;" parent="1" vertex="1">
          <mxGeometry x="960" y="380" width="680" height="40" as="geometry" />
        </mxCell>
        <mxCell id="oHM1tqddM9_ak2Br6Nf2-76" value="Home" style="rounded=0;whiteSpace=wrap;html=1;fontSize=16;" parent="1" vertex="1">
          <mxGeometry x="980" y="330" width="120" height="50" as="geometry" />
        </mxCell>
        <mxCell id="oHM1tqddM9_ak2Br6Nf2-77" value="" style="rounded=0;whiteSpace=wrap;html=1;fontSize=16;" parent="1" vertex="1">
          <mxGeometry x="960" y="420" width="680" height="1040" as="geometry" />
        </mxCell>
        <mxCell id="oHM1tqddM9_ak2Br6Nf2-78" value="Success stories" style="rounded=0;whiteSpace=wrap;html=1;fontSize=16;" parent="1" vertex="1">
          <mxGeometry x="990" y="450" width="130" height="60" as="geometry" />
        </mxCell>
        <mxCell id="oHM1tqddM9_ak2Br6Nf2-79" value="image describing the story" style="rounded=0;whiteSpace=wrap;html=1;fontSize=18;" parent="1" vertex="1">
          <mxGeometry x="1045" y="540" width="250" height="295" as="geometry" />
        </mxCell>
        <mxCell id="oHM1tqddM9_ak2Br6Nf2-81" value="image describing the story" style="rounded=0;whiteSpace=wrap;html=1;fontSize=18;" parent="1" vertex="1">
          <mxGeometry x="1295" y="835" width="250" height="295" as="geometry" />
        </mxCell>
        <mxCell id="oHM1tqddM9_ak2Br6Nf2-82" value="image describing the story" style="rounded=0;whiteSpace=wrap;html=1;fontSize=18;" parent="1" vertex="1">
          <mxGeometry x="1045" y="1130" width="250" height="295" as="geometry" />
        </mxCell>
        <mxCell id="oHM1tqddM9_ak2Br6Nf2-83" value="&lt;h1 style=&quot;font-size: 17px;&quot;&gt;story heading&lt;br&gt;&lt;/h1&gt;&lt;p&gt;&lt;font style=&quot;font-size: 13px;&quot;&gt;Lorem ipsum dolor sit amet, consectetur adipisicing elit, sed do eiusmod tempor incididunt ut labore et dolore magna aliqua.&lt;/font&gt;&lt;font style=&quot;font-size: 13px;&quot;&gt;Lorem ipsum dolor sit amet, consectetur adipisicing elit, sed do eiusmod tempor incididunt ut labore et dolore magna aliqua.&lt;/font&gt;&lt;font style=&quot;font-size: 13px;&quot;&gt;Lorem ipsum dolor sit amet, consectetur adipisicing elit.&lt;/font&gt;&lt;/p&gt;" style="text;html=1;strokeColor=none;fillColor=none;spacing=5;spacingTop=-20;whiteSpace=wrap;overflow=hidden;rounded=0;fontSize=18;" parent="1" vertex="1">
          <mxGeometry x="1325" y="555" width="220" height="250" as="geometry" />
        </mxCell>
        <mxCell id="oHM1tqddM9_ak2Br6Nf2-84" value="&lt;h1 style=&quot;font-size: 17px;&quot;&gt;story heading&lt;br&gt;&lt;/h1&gt;&lt;p&gt;&lt;font style=&quot;font-size: 13px;&quot;&gt;Lorem ipsum dolor sit amet, consectetur adipisicing elit, sed do eiusmod tempor incididunt ut labore et dolore magna aliqua.&lt;/font&gt;&lt;font style=&quot;font-size: 13px;&quot;&gt;Lorem ipsum dolor sit amet, consectetur adipisicing elit, sed do eiusmod tempor incididunt ut labore et dolore magna aliqua.&lt;/font&gt;&lt;font style=&quot;font-size: 13px;&quot;&gt;Lorem ipsum dolor sit amet, consectetur adipisicing elit.&lt;/font&gt;&lt;/p&gt;" style="text;html=1;strokeColor=none;fillColor=none;spacing=5;spacingTop=-20;whiteSpace=wrap;overflow=hidden;rounded=0;fontSize=18;" parent="1" vertex="1">
          <mxGeometry x="1045" y="857.5" width="220" height="250" as="geometry" />
        </mxCell>
        <mxCell id="oHM1tqddM9_ak2Br6Nf2-85" value="&lt;h1 style=&quot;font-size: 17px;&quot;&gt;story heading&lt;br&gt;&lt;/h1&gt;&lt;p&gt;&lt;font style=&quot;font-size: 13px;&quot;&gt;Lorem ipsum dolor sit amet, consectetur adipisicing elit, sed do eiusmod tempor incididunt ut labore et dolore magna aliqua.&lt;/font&gt;&lt;font style=&quot;font-size: 13px;&quot;&gt;Lorem ipsum dolor sit amet, consectetur adipisicing elit, sed do eiusmod tempor incididunt ut labore et dolore magna aliqua.&lt;/font&gt;&lt;font style=&quot;font-size: 13px;&quot;&gt;Lorem ipsum dolor sit amet, consectetur adipisicing elit.&lt;/font&gt;&lt;/p&gt;" style="text;html=1;strokeColor=none;fillColor=none;spacing=5;spacingTop=-20;whiteSpace=wrap;overflow=hidden;rounded=0;fontSize=18;" parent="1" vertex="1">
          <mxGeometry x="1325" y="1152.5" width="220" height="250" as="geometry" />
        </mxCell>
        <mxCell id="oHM1tqddM9_ak2Br6Nf2-86" value="space" style="rounded=0;whiteSpace=wrap;html=1;fontSize=16;" parent="1" vertex="1">
          <mxGeometry x="960" y="1460" width="680" height="60" as="geometry" />
        </mxCell>
        <mxCell id="oHM1tqddM9_ak2Br6Nf2-87" value="" style="rounded=0;whiteSpace=wrap;html=1;fontSize=16;" parent="1" vertex="1">
          <mxGeometry x="960" y="1520" width="680" height="260" as="geometry" />
        </mxCell>
        <mxCell id="oHM1tqddM9_ak2Br6Nf2-88" value="Contact us" style="rounded=0;whiteSpace=wrap;html=1;fontSize=16;" parent="1" vertex="1">
          <mxGeometry x="990" y="1540" width="110" height="40" as="geometry" />
        </mxCell>
        <mxCell id="oHM1tqddM9_ak2Br6Nf2-89" value="email field" style="rounded=0;whiteSpace=wrap;html=1;fontSize=16;" parent="1" vertex="1">
          <mxGeometry x="990" y="1610" width="180" height="40" as="geometry" />
        </mxCell>
        <mxCell id="oHM1tqddM9_ak2Br6Nf2-90" value="message field" style="rounded=0;whiteSpace=wrap;html=1;fontSize=16;" parent="1" vertex="1">
          <mxGeometry x="990" y="1660" width="180" height="60" as="geometry" />
        </mxCell>
        <mxCell id="oHM1tqddM9_ak2Br6Nf2-91" value="submit" style="rounded=1;whiteSpace=wrap;html=1;fontSize=16;" parent="1" vertex="1">
          <mxGeometry x="990" y="1730" width="100" height="30" as="geometry" />
        </mxCell>
        <mxCell id="oHM1tqddM9_ak2Br6Nf2-92" value="Site-map" style="rounded=0;whiteSpace=wrap;html=1;fontSize=16;" parent="1" vertex="1">
          <mxGeometry x="1240" y="1540" width="110" height="40" as="geometry" />
        </mxCell>
        <mxCell id="oHM1tqddM9_ak2Br6Nf2-93" value="&lt;div align=&quot;left&quot;&gt;- Home&lt;/div&gt;&lt;div align=&quot;left&quot;&gt;- Calendar&lt;/div&gt;&lt;div align=&quot;left&quot;&gt;- Success stories&lt;br&gt;&lt;/div&gt;&lt;div align=&quot;left&quot;&gt;- About&lt;/div&gt;&lt;div align=&quot;left&quot;&gt;- Contact us&lt;/div&gt;&lt;div&gt;&lt;br&gt;&lt;/div&gt;&lt;div&gt;&lt;br&gt;&lt;/div&gt;" style="text;html=1;strokeColor=none;fillColor=none;align=center;verticalAlign=middle;whiteSpace=wrap;rounded=0;fontSize=16;" parent="1" vertex="1">
          <mxGeometry x="1230" y="1610" width="140" height="140" as="geometry" />
        </mxCell>
        <mxCell id="oHM1tqddM9_ak2Br6Nf2-94" value="Logo" style="ellipse;whiteSpace=wrap;html=1;aspect=fixed;fontSize=16;" parent="1" vertex="1">
          <mxGeometry x="1440" y="1540" width="70" height="70" as="geometry" />
        </mxCell>
        <mxCell id="oHM1tqddM9_ak2Br6Nf2-95" value="&lt;font style=&quot;font-size: 18px;&quot;&gt;School Name&lt;/font&gt;" style="text;html=1;strokeColor=none;fillColor=none;align=center;verticalAlign=middle;whiteSpace=wrap;rounded=0;fontSize=16;" parent="1" vertex="1">
          <mxGeometry x="1510" y="1545" width="90" height="60" as="geometry" />
        </mxCell>
        <mxCell id="oHM1tqddM9_ak2Br6Nf2-96" value="&lt;div align=&quot;left&quot;&gt;&lt;font style=&quot;font-size: 16px;&quot;&gt;Phone number&lt;/font&gt;&lt;/div&gt;" style="text;html=1;strokeColor=none;fillColor=none;align=left;verticalAlign=middle;whiteSpace=wrap;rounded=0;fontSize=18;" parent="1" vertex="1">
          <mxGeometry x="1450" y="1620" width="135" height="30" as="geometry" />
        </mxCell>
        <mxCell id="oHM1tqddM9_ak2Br6Nf2-97" value="&lt;div style=&quot;font-size: 16px;&quot; align=&quot;left&quot;&gt;&lt;font style=&quot;font-size: 16px;&quot;&gt;Email address&lt;br&gt;&lt;/font&gt;&lt;/div&gt;" style="text;html=1;strokeColor=none;fillColor=none;align=left;verticalAlign=middle;whiteSpace=wrap;rounded=0;fontSize=18;" parent="1" vertex="1">
          <mxGeometry x="1450" y="1650" width="135" height="30" as="geometry" />
        </mxCell>
        <mxCell id="oHM1tqddM9_ak2Br6Nf2-98" value="&lt;font style=&quot;font-size: 16px;&quot;&gt;Postal code&lt;/font&gt;" style="text;html=1;strokeColor=none;fillColor=none;align=left;verticalAlign=middle;whiteSpace=wrap;rounded=0;fontSize=18;" parent="1" vertex="1">
          <mxGeometry x="1450" y="1680" width="135" height="30" as="geometry" />
        </mxCell>
        <mxCell id="oHM1tqddM9_ak2Br6Nf2-99" value="&lt;div align=&quot;left&quot;&gt;&amp;nbsp;&amp;nbsp;&amp;nbsp;&amp;nbsp;&amp;nbsp;&amp;nbsp; copyright information&lt;br&gt;&lt;/div&gt;" style="rounded=0;whiteSpace=wrap;html=1;fontSize=16;align=left;" parent="1" vertex="1">
          <mxGeometry x="960" y="1780" width="680" height="40" as="geometry" />
        </mxCell>
      </root>
    </mxGraphModel>
  </diagram>
</mxfile>
